<svg width="27" height="27" viewBox="0 0 27 27" fill="none" xmlns="http://www.w3.org/2000/svg">
<path d="M26.7407 10.9954H13.7876V16.1858H21.2305C21.1109 16.9203 20.8422 17.6429 20.4488 18.3018C19.998 19.0567 19.4407 19.6315 18.8696 20.0691C17.1586 21.3802 15.1639 21.6483 13.7785 21.6483C10.279 21.6483 7.28891 19.3865 6.13138 16.3131C6.08467 16.2016 6.05365 16.0864 6.01588 15.9725C5.76008 15.1903 5.62033 14.3619 5.62033 13.5009C5.62033 12.6048 5.77167 11.747 6.04762 10.9368C7.13609 7.74159 10.1936 5.35507 13.7811 5.35507C14.5026 5.35507 15.1975 5.44096 15.8565 5.61228C17.3624 6.00379 18.4277 6.77489 19.0804 7.38482L23.0189 3.52773C20.6231 1.33106 17.5 3.3212e-09 13.7745 3.3212e-09C10.7962 -6.41017e-05 8.04656 0.927879 5.7933 2.49613C3.96597 3.76795 2.46731 5.47074 1.45589 7.44835C0.515127 9.28199 0 11.314 0 13.4988C0 15.6837 0.515914 17.7369 1.45668 19.5536V19.5658C2.45036 21.4945 3.90346 23.1551 5.66955 24.4211C7.21243 25.527 9.97894 27 13.7745 27C15.9572 27 17.8917 26.6065 19.5978 25.869C20.8285 25.3369 21.919 24.643 22.9062 23.7512C24.2107 22.5728 25.2323 21.1153 25.9297 19.4383C26.627 17.7613 27 15.865 27 13.809C27 12.8515 26.9038 11.8792 26.7407 10.9954Z" fill="white"/>
</svg>
