<svg width="21" height="21" viewBox="0 0 21 21" fill="none" xmlns="http://www.w3.org/2000/svg">
<path d="M3.12254 3.25226C3.25309 3.05011 3.52271 2.99197 3.72496 3.12226C3.72507 3.12233 3.72538 3.12254 3.48882 3.48882L3.25226 3.85511C3.04997 3.72446 2.99189 3.45456 3.12254 3.25226Z" fill="white"/>
<path fill-rule="evenodd" clip-rule="evenodd" d="M7.41314 15.5569V5.37391C6.56612 5.20741 5.83151 4.98944 5.22576 4.77109C4.60176 4.54616 4.11368 4.32054 3.7792 4.14962C3.61191 4.06414 3.48291 3.99228 3.39439 3.94091C3.35012 3.91523 3.31597 3.89467 3.29219 3.88008L3.26434 3.86279L3.25632 3.85771L3.25379 3.85609L3.25226 3.85511C3.25211 3.85501 3.25226 3.85511 3.48882 3.48882L3.72496 3.12226L3.72906 3.12486L3.7482 3.13674C3.76607 3.1477 3.79411 3.16461 3.83204 3.18662C3.90791 3.23064 4.0233 3.29503 4.17601 3.37306C4.48151 3.52917 4.93583 3.73959 5.52148 3.95069C6.69305 4.373 8.38687 4.79693 10.4654 4.79693C12.5439 4.79693 14.2377 4.373 15.4093 3.95069C15.9949 3.73959 16.4493 3.52917 16.7548 3.37306C16.9075 3.29503 17.0229 3.23064 17.0987 3.18662C17.1367 3.16461 17.1647 3.1477 17.1826 3.13674L17.2017 3.12486L17.2054 3.12254C17.4077 2.99208 17.6776 3.05004 17.8082 3.25226C17.9389 3.45456 17.8808 3.72446 17.6785 3.85511L17.4419 3.48882C17.6785 3.85511 17.6787 3.85501 17.6785 3.85511L17.677 3.85609L17.6744 3.85771L17.6664 3.86279L17.6386 3.88008C17.6148 3.89467 17.5806 3.91523 17.5364 3.94091C17.4479 3.99228 17.3189 4.06414 17.1516 4.14962C16.8171 4.32054 16.329 4.54616 15.705 4.77109C15.0993 4.98944 14.3647 5.20741 13.5176 5.37391V15.5569C14.3647 15.7234 15.0993 15.9413 15.705 16.1597C16.329 16.3846 16.8171 16.6102 17.1516 16.7811C17.3189 16.8666 17.4479 16.9385 17.5364 16.9899C17.5806 17.0155 17.6148 17.0361 17.6386 17.0507L17.6664 17.068L17.6744 17.0731L17.677 17.0747L17.6779 17.0752C17.678 17.0753 17.6785 17.0757 17.4419 17.4419L17.6779 17.0752C17.8802 17.2059 17.9389 17.4762 17.8082 17.6785C17.6776 17.8807 17.4079 17.9388 17.2056 17.8084L17.2017 17.8059L17.1826 17.794C17.1647 17.7831 17.1367 17.7662 17.0987 17.7442C17.0229 17.7001 16.9075 17.6357 16.7548 17.5577C16.4493 17.4016 15.9949 17.1912 15.4093 16.9801C14.2377 16.5578 12.5439 16.1338 10.4654 16.1338C8.38687 16.1338 6.69305 16.5578 5.52148 16.9801C4.93583 17.1912 4.48151 17.4016 4.17601 17.5577C4.0233 17.6357 3.90791 17.7001 3.83204 17.7442C3.79411 17.7662 3.76607 17.7831 3.7482 17.794L3.72906 17.8059L3.72538 17.8082L3.48882 17.4419C3.25226 17.0757 3.2524 17.0756 3.25255 17.0755L3.25379 17.0747L3.25632 17.0731L3.26434 17.068L3.29219 17.0507C3.31597 17.0361 3.35012 17.0155 3.39439 16.9899C3.48291 16.9385 3.61191 16.8666 3.7792 16.7811C4.11368 16.6102 4.60176 16.3846 5.22576 16.1597C5.83151 15.9413 6.56612 15.7234 7.41314 15.5569ZM8.28521 15.411C8.95693 15.3182 9.6858 15.2618 10.4654 15.2618C11.245 15.2618 11.9738 15.3182 12.6456 15.411V5.51972C11.9738 5.61259 11.245 5.669 10.4654 5.669C9.6858 5.669 8.95693 5.61259 8.28521 5.51972V15.411Z" fill="white"/>
<path d="M3.72538 17.8082C3.72531 17.8083 3.72546 17.8082 3.72538 17.8082V17.8082Z" fill="white"/>
<path d="M3.72538 17.8082C3.52311 17.9387 3.25313 17.8807 3.12254 17.6785C2.99189 17.4762 3.05026 17.2061 3.25255 17.0755L3.48882 17.4419C3.72538 17.8082 3.72549 17.8082 3.72538 17.8082Z" fill="white"/>
</svg>
