<svg width="24" height="24" viewBox="0 0 24 24" fill="none" xmlns="http://www.w3.org/2000/svg">
<path d="M23.8117 18.1395L21.5398 15.8818C20.9935 15.3355 20.7978 14.5508 20.5894 13.7188C20.3604 12.8015 20.0999 11.7626 19.3073 10.97C19.3073 10.97 14.4147 6.07099 14.3974 6.05523C14.0406 5.69842 13.5653 5.50106 13.0569 5.50106C12.5501 5.50106 12.0733 5.69684 11.7165 6.05523C11.4781 6.29363 11.3171 6.58099 11.2318 6.8857C10.6208 6.7515 9.95774 6.92201 9.48409 7.39565C9.14148 7.73825 8.95675 8.1819 8.93307 8.63187C8.46576 8.65713 8.02997 8.84975 7.69842 9.18289C7.5437 9.33761 7.41897 9.51444 7.32898 9.70549L3.23343 5.60995C2.87662 5.24998 2.39981 5.0542 1.89301 5.0542C1.38621 5.0542 0.909403 5.24998 0.552593 5.60679C0.19578 5.96519 0 6.44041 0 6.94721C0 7.45401 0.195776 7.93082 0.552593 8.28606C0.592064 8.32553 4.44912 12.2 5.4658 13.1993L4.57535 14.0897C4.14118 14.5239 4.37799 15.228 4.63376 15.7917C5.54789 17.811 8.51138 21.6442 11.3407 21.6442C11.407 21.6442 11.4749 21.6426 11.5412 21.6379C11.8428 21.6189 12.2154 21.5494 12.6464 21.4705C13.559 21.3031 15.0841 21.0237 15.5151 21.4563L17.8676 23.8135C17.9907 23.9382 18.1518 23.9998 18.3144 23.9998C18.4707 23.9998 18.627 23.9429 18.7486 23.8277L23.8008 19.047C23.9255 18.9302 23.9966 18.7676 23.9982 18.5955C23.9998 18.4234 23.9333 18.2595 23.8117 18.1395ZM18.327 22.4877L16.4088 20.5662C15.9541 20.1115 15.2925 19.9663 14.5726 19.9663C13.8653 19.9663 13.1011 20.1068 12.4191 20.2315C12.0433 20.301 11.6881 20.3657 11.4591 20.3799C10.6413 20.4336 9.63089 19.9347 8.53831 18.9353C6.91213 17.448 5.7738 15.4651 5.61589 14.8349L6.28056 14.1702C7.00998 15.1901 7.56258 16.3695 7.51836 16.7122C7.46153 17.0563 7.69361 17.3816 8.03781 17.44C8.382 17.4968 8.70721 17.2648 8.76566 16.9205C8.96617 15.7206 7.32104 13.2482 6.35639 12.3008C5.35067 11.3124 1.48886 7.43325 1.44763 7.39203C1.32764 7.2752 1.26291 7.11574 1.26291 6.94678C1.26291 6.77785 1.32764 6.61839 1.44605 6.49996C1.56446 6.38154 1.72392 6.31682 1.89287 6.31682C2.06181 6.31682 2.22127 6.38156 2.33969 6.49996L7.6983 11.8586C7.9446 12.1049 8.34405 12.1049 8.5919 11.8586C8.8382 11.6123 8.8382 11.2128 8.5919 10.965C8.47348 10.8466 8.40876 10.6887 8.40876 10.5182C8.40876 10.3492 8.47349 10.1898 8.5919 10.0713C8.71031 9.95292 8.86819 9.88819 9.03872 9.88819C9.20765 9.88819 9.36711 9.95292 9.48554 10.0713C9.73184 10.3176 10.1313 10.3176 10.3791 10.0713C10.5023 9.94818 10.5639 9.78714 10.5639 9.62451C10.5639 9.46347 10.5023 9.30085 10.3791 9.17769C10.1328 8.93139 10.1328 8.53036 10.3791 8.28409C10.4975 8.16568 10.6554 8.10095 10.826 8.10095C10.9949 8.10095 11.1544 8.16568 11.2728 8.28409L11.7196 8.73091C11.9659 8.97721 12.3654 8.97721 12.6132 8.73091C12.7363 8.60776 12.7979 8.44673 12.7979 8.28409C12.7979 8.12305 12.7363 7.96043 12.6132 7.83727C12.3669 7.59097 12.3669 7.18994 12.6132 6.94367C12.7316 6.82526 12.8895 6.76053 13.06 6.76053C13.2132 6.76053 13.3568 6.81421 13.4705 6.91052C13.4816 6.92315 18.4152 11.8585 18.4152 11.8585C18.9615 12.4048 19.1573 13.1894 19.3657 14.0215C19.5946 14.9388 19.8551 15.9776 20.6493 16.7718L22.4618 18.5732L18.327 22.4877Z" fill="#7D7E83"/>
<path d="M6.66439 3.72518L9.19051 4.98824C9.2805 5.03402 9.37681 5.05455 9.47312 5.05455C9.7052 5.05455 9.92782 4.92666 10.0383 4.70563C10.1946 4.39302 10.0683 4.01412 9.75571 3.85778L8.39634 3.17888C9.47784 2.75575 10.7204 2.5284 11.9992 2.5284C13.7359 2.5284 15.4032 2.94519 16.6913 3.70464C16.7924 3.76305 16.9029 3.79147 17.0103 3.79147C17.2266 3.79147 17.4381 3.67938 17.555 3.48044C17.7318 3.18047 17.6308 2.79209 17.3308 2.61526C15.8514 1.74534 13.9584 1.26538 11.9993 1.26538C10.7046 1.26538 9.43684 1.47695 8.29689 1.87007L8.77371 0.914877C8.93001 0.602269 8.8037 0.223368 8.49109 0.0670316C8.17849 -0.0892725 7.79958 0.0370337 7.64325 0.349641L6.38019 2.87576C6.22547 3.18994 6.35336 3.56884 6.66439 3.72518Z" fill="#7D7E83"/>
</svg>
