<svg width="29" height="22" viewBox="0 0 29 22" fill="none" xmlns="http://www.w3.org/2000/svg">
<path d="M15.7423 1.31228C15.9407 1.29889 16.2345 1.34759 16.4234 1.4153C16.8433 1.56576 17.1775 1.84984 17.5526 2.07265C18.0479 2.36689 18.5549 2.64598 19.0484 2.94439C19.6942 3.33492 20.33 3.75665 20.9778 4.14344C22.815 5.24034 24.6963 6.26324 26.4708 7.46544C26.7102 7.62758 27.1784 8.03421 27.3104 8.30169C27.3827 8.44775 27.4107 8.76862 27.4324 8.94257C27.5355 9.77793 27.6353 10.7267 27.3523 11.534C27.2915 11.7075 27.1641 11.8162 27.0187 11.9171C25.688 12.8415 24.2669 13.6441 22.8934 14.4987C21.4279 15.4106 19.9796 16.348 18.5131 17.2602C17.1963 18.0793 15.8996 18.9526 14.5808 19.769C13.8585 20.2161 13.2684 20.603 12.4908 20.9488C12.3527 20.919 12.3305 20.9102 12.198 20.9716C12.1499 20.9939 12.0702 21.0161 12.0206 21.0003C11.6658 20.8872 11.3084 20.6502 10.9962 20.4602C10.6593 20.2527 10.3193 20.0506 9.97629 19.8538C8.55797 19.0527 7.15677 18.2211 5.77359 17.3595C5.49027 17.1832 5.22384 16.9935 4.94392 16.8169C4.11647 16.2932 3.25059 15.7919 2.44036 15.2437C2.10668 15.018 0.926972 14.3311 0.869599 13.9556C0.758744 13.23 0.71409 12.0745 0.838928 11.351C0.862464 11.2095 0.907429 11.0725 0.972245 10.9449C1.17938 10.5294 5.16959 8.0375 5.77803 7.64232L12.1147 3.54939L14.3289 2.15278C14.7631 1.87723 15.2751 1.47626 15.7423 1.31228ZM12.4656 17.5526C13.0205 16.924 14.2895 16.1617 15.0303 15.702L17.7805 14.0177C18.373 13.6532 19.0135 13.2104 19.6098 12.8296L23.1775 10.5721L25.4171 9.15909C25.6933 8.98266 26.03 8.78342 26.2933 8.59659C26.0209 8.3849 25.7332 8.20007 25.4505 8.0036C24.1897 7.12714 22.8677 6.34874 21.5499 5.56351C20.6866 5.04902 19.8468 4.49952 18.9908 3.97347C18.3952 3.6074 17.785 3.26687 17.1886 2.90216C17.0495 2.81706 16.0191 2.09606 15.9943 2.09601C15.7413 2.38511 15.2222 2.67638 14.8885 2.88278L13.7606 3.57825L10.5265 5.58869L4.84676 9.11353C3.80023 9.76891 2.6994 10.5136 1.64374 11.1293C2.14242 11.322 2.6242 11.6596 3.08114 11.946C3.6999 12.3368 4.32302 12.7206 4.95034 13.0972C5.3131 13.3106 5.69535 13.5203 6.06748 13.7173C8.00083 14.7413 9.83308 15.9232 11.7036 17.0556C11.8536 17.1464 12.005 17.2422 12.1521 17.3375C12.2687 17.4084 12.363 17.4608 12.4656 17.5526ZM12.7931 20.0766C13.1714 19.7859 13.7865 19.4172 14.2019 19.1526L16.9452 17.4218C18.8958 16.1829 20.8196 14.8828 22.7612 13.6244L24.9323 12.235C25.4235 11.9169 25.9127 11.5928 26.3794 11.2384C26.4648 11.1736 26.5628 11.0904 26.5628 10.9813C26.5628 10.6891 26.5762 9.91289 26.5273 9.65968L26.4859 9.64043C25.2009 10.5392 23.6939 11.4239 22.3387 12.2416L17.2955 15.3331C16.4322 15.873 15.6814 16.3894 14.8466 16.9632C14.3028 17.3371 13.29 18.0119 12.703 18.2586C12.7871 18.6322 12.8689 19.7145 12.7931 20.0766ZM1.58154 13.8967C1.90534 14.1233 2.31566 14.3572 2.65664 14.5674C3.55218 15.1156 4.45583 15.6502 5.36731 16.1709C7.17614 17.2061 8.94305 18.3012 10.8056 19.2488C11.0077 19.3516 11.8047 19.8684 11.9267 19.8623C11.8293 19.588 11.8679 18.6633 11.9445 18.3778C11.5351 18.2435 10.9917 17.8382 10.6336 17.6108L8.40997 16.1849C7.8351 15.8172 7.22348 15.44 6.63175 15.0977C5.38326 14.3756 4.20019 13.5618 2.97479 12.8022C2.56888 12.5505 2.15686 12.3148 1.77532 12.0249C1.72589 11.988 1.62399 11.9095 1.56933 11.892C1.59852 12.1053 1.5895 12.385 1.58949 12.6047L1.58154 13.8967Z" fill="white"/>
<path d="M11.6871 7.7407C11.6899 7.74029 11.6927 7.73991 11.6954 7.73952C14.0678 7.53993 17.3674 8.45974 17.5834 11.3128C17.6346 11.9893 17.6217 12.1875 16.9015 12.217C16.4543 12.1945 15.9979 12.2455 15.5266 12.2068C13.381 12.0297 11.032 10.928 10.9587 8.44584C10.9395 7.79435 11.0796 7.82062 11.6871 7.7407ZM14.2293 9.13753C12.6821 9.33052 13.0121 10.6877 14.6557 10.6103C15.0327 10.5516 15.6447 10.2373 15.5548 9.78627C15.4461 9.24098 14.6922 9.06912 14.2293 9.13753ZM13.5142 11.0913C13.6096 11.1348 13.7851 11.2064 13.888 11.2288C14.6742 11.4903 16.1712 11.7445 16.9743 11.5927C16.907 10.6812 16.7258 10.2846 16.1404 9.59214C16.3417 10.3899 15.7704 10.8516 15.1073 11.101C14.7286 11.2434 14.339 11.2486 13.9445 11.1794C13.7957 11.1397 13.7148 11.1156 13.5727 11.0567C13.1607 10.857 12.8128 10.6306 12.6541 10.1706C12.4093 9.46042 13.0504 8.83511 13.6722 8.64837C13.8195 8.60424 13.9702 8.57453 14.118 8.54329C13.5213 8.40947 12.9962 8.30937 12.3755 8.32589C12.0886 8.33352 11.8462 8.36867 11.5665 8.38734C11.7305 9.72964 12.2785 10.5097 13.5142 11.0913Z" fill="white"/>
<path d="M14.2799 9.45441C14.3629 9.44515 14.4732 9.45134 14.5588 9.45346C14.6296 9.49624 14.7077 9.56084 14.7741 9.6126C14.887 9.90382 14.8522 10.1937 14.5175 10.2921C14.1516 10.3149 14.0089 10.1809 13.9043 9.84796C14.0138 9.61421 14.038 9.55004 14.2799 9.45441Z" fill="white"/>
<path d="M13.5722 11.0581C13.7142 11.117 13.7952 11.1411 13.944 11.1808L13.8875 11.2302C13.7846 11.2078 13.6091 11.1362 13.5137 11.0927L13.5722 11.0581Z" fill="#FEFEF4" fill-opacity="0.0705882"/>
<path d="M19.0521 6.27124C19.2845 6.28185 19.493 6.63456 19.2145 6.83278C18.5867 7.27957 17.9442 7.70264 17.3051 8.13278C17.1265 8.253 16.9375 8.39162 16.7421 8.47831C16.4439 8.43555 16.3117 8.09204 16.6175 7.87131C17.0235 7.57826 17.4311 7.29274 17.8526 7.02281C18.2251 6.78433 18.6496 6.44524 19.0521 6.27124Z" fill="white"/>
<path d="M11.5391 11.3433C11.9232 11.3007 12.0194 11.6891 11.7975 11.8541C11.2232 12.2814 10.5938 12.6549 10.0042 13.0631C9.80947 13.1978 9.57081 13.3645 9.36484 13.4779C9.31823 13.4853 9.27252 13.4929 9.22617 13.4798C9.14544 13.4571 9.07362 13.3888 9.03631 13.3141C9.00268 13.2468 8.99417 13.1719 9.01994 13.1004C9.10966 12.8514 11.1876 11.5191 11.5391 11.3433Z" fill="white"/>
<path d="M20.3569 9.2035C20.6115 9.18896 20.9897 9.31542 20.8187 9.69023C20.7473 9.84683 20.0942 9.84185 19.8879 9.86217C19.3542 9.91474 18.7923 9.94059 18.2472 10.0005C18.0331 10.0407 17.8077 9.95883 17.7833 9.71554C17.7768 9.64374 17.7991 9.57228 17.8454 9.51733C18.0045 9.32425 18.4807 9.3606 18.7254 9.3401L20.3569 9.2035Z" fill="white"/>
<path d="M9.85172 9.74482C10.1198 9.72587 10.5085 9.64994 10.5424 10.0223C10.5794 10.4284 9.75974 10.3505 9.48801 10.3641L8.09601 10.4462C7.9334 10.46 7.67816 10.5048 7.54543 10.3868C7.48692 10.3347 7.45941 10.2586 7.45631 10.1812C7.45331 10.1063 7.47721 10.0316 7.52942 9.97749C7.68546 9.81585 9.52389 9.74905 9.85172 9.74482Z" fill="white"/>
<path d="M13.6792 12.2898C13.9039 12.3153 14.0196 12.491 13.9918 12.7115C13.9138 13.3294 13.8563 13.9731 13.7136 14.5789C13.6916 14.6723 13.5732 14.7835 13.504 14.8469C13.4715 14.8469 13.439 14.8457 13.4066 14.8433C13.3028 14.8351 13.2715 14.7797 13.2013 14.6981C13.1068 14.2895 13.2449 13.7551 13.291 13.336C13.3245 13.0322 13.3516 12.6953 13.4792 12.4176C13.52 12.329 13.5935 12.3154 13.6792 12.2898Z" fill="white"/>
<path d="M14.8057 5.24072C14.8349 5.24493 14.8639 5.25 14.8928 5.25596C15.2691 5.33579 15.1347 5.95617 15.0956 6.24787C15.0398 6.66462 15.0584 7.27935 14.6857 7.52746C14.6521 7.52503 14.6226 7.51865 14.5905 7.50848C14.4985 7.47832 14.4224 7.41198 14.3794 7.32445C14.2591 7.07725 14.5151 5.78413 14.5807 5.45589C14.6011 5.3536 14.7179 5.28141 14.8057 5.24072Z" fill="white"/>
</svg>
